<svg width="30" height="27" viewBox="0 0 30 27" fill="none" xmlns="http://www.w3.org/2000/svg">
<path d="M26.7928 13.3831H22.2981V9.74781C22.2981 7.74274 23.9106 6.11256 25.8938 6.11256H26.3433C27.0906 6.11256 27.6917 5.50479 27.6917 4.74933V2.02289C27.6917 1.26744 27.0906 0.659668 26.3433 0.659668H25.8938C20.9272 0.659668 16.9045 4.72661 16.9045 9.74781V23.38C16.9045 24.8853 18.1124 26.1065 19.6013 26.1065H26.7928C28.2816 26.1065 29.4896 24.8853 29.4896 23.38V16.1095C29.4896 14.6043 28.2816 13.3831 26.7928 13.3831ZM10.6119 13.3831H6.11725V9.74781C6.11725 7.74274 7.72972 6.11256 9.71299 6.11256H10.1625C10.9097 6.11256 11.5109 5.50479 11.5109 4.74933V2.02289C11.5109 1.26744 10.9097 0.659668 10.1625 0.659668H9.71299C4.74637 0.659668 0.723633 4.72661 0.723633 9.74781V23.38C0.723633 24.8853 1.93158 26.1065 3.42044 26.1065H10.6119C12.1008 26.1065 13.3087 24.8853 13.3087 23.38V16.1095C13.3087 14.6043 12.1008 13.3831 10.6119 13.3831Z" fill="#FC8A10"/>
</svg>
